<svg fill="none" xmlns="http://www.w3.org/2000/svg">
<mask id="path-1-inside-1" fill="white">
<path fill-rule="evenodd" clip-rule="evenodd" d="M0 10C0 4.47715 4.47715 0 10 0H286C291.523 0 296 4.48039 296 10.0032V67.5918C295.882 67.6354 295.768 67.7035 295.665 67.7988L291.423 71.7122C290.994 72.1082 290.994 72.7862 291.423 73.1822L295.665 77.0956C295.768 77.1909 295.882 77.2591 296 77.3026V133.997C296 139.52 291.523 144 286 144H10C4.47716 144 0 139.523 0 134V77.3026C0.117914 77.2591 0.231523 77.1909 0.334816 77.0956L4.57652 73.1822C5.00572 72.7862 5.00572 72.1082 4.57652 71.7122L0.334816 67.7988C0.231523 67.7035 0.117914 67.6354 0 67.5918V10Z"/>
</mask>
<path d="M296 67.5918L296.347 68.5298L297 68.2884V67.5918H296ZM295.665 67.7988L294.987 67.0638L294.987 67.0638L295.665 67.7988ZM291.423 71.7122L292.102 72.4472L292.102 72.4472L291.423 71.7122ZM291.423 73.1822L290.745 73.9172L290.745 73.9172L291.423 73.1822ZM295.665 77.0956L294.987 77.8306L294.987 77.8306L295.665 77.0956ZM296 77.3026H297V76.6061L296.347 76.3646L296 77.3026ZM0 77.3026L-0.346666 76.3646L-1 76.6061V77.3026H0ZM0.334816 77.0956L1.01291 77.8306L1.01291 77.8306L0.334816 77.0956ZM4.57652 73.1822L5.25461 73.9172L5.25462 73.9172L4.57652 73.1822ZM4.57652 71.7122L3.89842 72.4472L3.89842 72.4472L4.57652 71.7122ZM0.334816 67.7988L1.01291 67.0638L1.01291 67.0638L0.334816 67.7988ZM0 67.5918H-1V68.2884L-0.346612 68.5298L0 67.5918ZM10 -1C3.92487 -1 -1 3.92486 -1 10H1C1 5.02943 5.02944 1 10 1V-1ZM286 -1H10V1H286V-1ZM297 10.0032C297 3.92853 292.076 -1 286 -1V1C290.97 1 295 5.03225 295 10.0032H297ZM297 67.5918V10.0032H295V67.5918H297ZM296.343 68.5338C296.346 68.5317 296.347 68.5303 296.348 68.5295C296.349 68.5286 296.35 68.5283 296.35 68.5283C296.35 68.5282 296.35 68.5284 296.349 68.5287C296.349 68.5291 296.348 68.5294 296.347 68.5298L295.653 66.6538C295.412 66.7431 295.186 66.8805 294.987 67.0638L296.343 68.5338ZM292.102 72.4472L296.343 68.5338L294.987 67.0638L290.745 70.9773L292.102 72.4472ZM292.102 72.4472L292.102 72.4472L290.745 70.9773C289.887 71.7693 289.887 73.1252 290.745 73.9172L292.102 72.4472ZM296.343 76.3607L292.102 72.4472L290.745 73.9172L294.987 77.8306L296.343 76.3607ZM296.347 76.3646C296.348 76.365 296.349 76.3654 296.349 76.3657C296.35 76.366 296.35 76.3662 296.35 76.3662C296.35 76.3661 296.349 76.3658 296.348 76.365C296.347 76.3642 296.346 76.3628 296.343 76.3606L294.987 77.8306C295.186 78.0139 295.412 78.1514 295.653 78.2406L296.347 76.3646ZM297 133.997V77.3026H295V133.997H297ZM286 145C292.076 145 297 140.071 297 133.997H295C295 138.968 290.97 143 286 143V145ZM10 145H286V143H10V145ZM-1 134C-1 140.075 3.92487 145 10 145V143C5.02944 143 1 138.971 1 134H-1ZM-1 77.3026V134H1V77.3026H-1ZM-0.343278 76.3607C-0.345568 76.3628 -0.347273 76.3642 -0.348339 76.365C-0.349404 76.3658 -0.349977 76.3661 -0.35004 76.3662C-0.350104 76.3662 -0.349809 76.366 -0.349168 76.3657C-0.34853 76.3654 -0.347685 76.365 -0.346666 76.3646L0.346666 78.2406C0.588155 78.1514 0.814178 78.014 1.01291 77.8306L-0.343278 76.3607ZM3.89842 72.4472L-0.34328 76.3607L1.01291 77.8306L5.25461 73.9172L3.89842 72.4472ZM3.89842 72.4472L3.89841 72.4472L5.25462 73.9172C6.11302 73.1252 6.11303 71.7693 5.25461 70.9773L3.89842 72.4472ZM-0.34328 68.5338L3.89842 72.4472L5.25461 70.9773L1.01291 67.0638L-0.34328 68.5338ZM-0.346612 68.5298C-0.347651 68.5294 -0.34851 68.5291 -0.349159 68.5287C-0.34981 68.5284 -0.350111 68.5282 -0.35005 68.5283C-0.34999 68.5283 -0.349417 68.5287 -0.348349 68.5295C-0.347281 68.5303 -0.345572 68.5317 -0.343277 68.5338L1.01291 67.0638C0.814204 66.8805 0.588174 66.7431 0.346612 66.6538L-0.346612 68.5298ZM-1 10V67.5918H1V10H-1Z" fill="#DF212D" mask="url(#path-1-inside-1)"/>
</svg>
